<?xml version="1.0" encoding="UTF-8"?>
<svg xmlns="http://www.w3.org/2000/svg" version="1.1" viewBox="0 0 113.3858 56.6924">
  <!-- Generator: Adobe Illustrator 28.7.1, SVG Export Plug-In . SVG Version: 1.2.0 Build 142)  -->
  <g>
    <g id="Capa_1">
      <g>
        <path d="M53.261,29.0212c-1.7735,0-3.2176-1.3252-3.2176-2.9742l.0066-.5398h6.8616c2.3739,0,4.306-1.7955,4.306-4.002v-2.5357c0-2.2076-1.9321-4.002-4.306-4.002h-5.987c-.3326,0-.6686.0033-1.0002.0771-1.9453.4307-3.2981,2.0654-3.2981,3.9249v1.4716c0,.3371.2457.6114.5497.6114h2.3232c.304,0,.5508-.2743.5508-.6114v-.9495c0-.7678.6841-1.3924,1.5256-1.3924h4.6938c.8416,0,1.5257.6246,1.5257,1.3924v1.5047c0,.7667-.6841,1.3913-1.5257,1.3913h-11.6049v3.1196h1.9541v.5398c0,3.3774,2.993,6.1048,6.6534,6.1048h9.9097v-3.1306h-9.9207Z" fill="#96cd32" />
        <path d="M38.0254,18.101c1.7735,0,3.2165,1.3417,3.2165,2.9929v10.5078c0,.304.2754.5497.6114.5497h2.1998c.3371,0,.6114-.2457.6114-.5497v-10.5078c0-3.3785-2.9786-6.1268-6.6391-6.1268h-7.0743c-.304,0-.5507.2742-.5507.6124v15.9616c0,.3371.2467.6103.5507.6103h2.3232c.3041,0,.5519-.2732.5519-.6103v-13.4412l4.1992.0011Z" fill="#1423dc" />
        <path d="M18.8218,18.099h9.0163c.3304,0,.5992-.2412.5992-.5387v-2.0522c0-.2985-.2567-.5408-.5992-.5408h-9.0791c-2.5281,0-4.5858,1.8924-4.5858,4.2233v8.7376c0,2.3309,2.0577,4.2234,4.5858,4.2234h9.0791c.3304,0,.5992-.2424.5992-.5398v-2.0522c0-.2963-.2688-.5386-.5992-.5386h-9.0163c-.6632,0-1.2239-.5255-1.2239-1.1468v-2.3981h5.3922c.3304,0,.5992-.2423.5992-.5397v-2.0082c0-.2974-.2688-.5397-.5992-.5397h-5.3922v-3.1417c0-.6224.5607-1.1478,1.2239-1.1478" fill="#1423dc" />
        <path d="M99.2126,26.2298c0-.1553-.0011-.3139-.0166-.4869-.1685-1.909-2.1359-3.3542-4.2101-3.3542h-5.1432l-.1311-.0011c-.8251,0-1.4948-.7303-1.4948-1.627l.0055-1.1666c0-.8228.7303-1.4937,1.627-1.4937h7.1789c.2621,0,.4946-.152.5783-.3789.0209-.0617.033-.1168.033-.1708v-2.0334c0-.303-.2742-.5497-.6113-.5497l-8.0017.0011c-2.3188,0-4.2334,1.7504-4.2334,3.8995v2.4334c0,2.3198,1.7504,4.2057,3.9018,4.2057h5.6069c.824,0,1.486.7292,1.486,1.627v.39c0,.8239-.7215,1.4926-1.6182,1.4926h-8.7651c-.2633,0-.4946.1531-.5772.3778-.0231.0628-.0342.119-.0342.1719v2.0334c0,.3041.2744.5508.6114.5508h7.1745l2.4333-.0011c2.3188,0,4.2003-1.7504,4.2003-3.9017v-2.0181Z" fill="#1423dc" />
        <path d="M71.19,14.9668h-7.4575c-.3041,0-.5497.2754-.5497.6125v10.1057c0,.3382.2456.6114.5485.6114h2.3221c.303,0,.5497-.2732.5497-.6114l.0033-7.5875,4.2003.0011c1.7746,0,3.2176,1.3428,3.2176,2.994v5.5177c0,1.6501-1.443,2.4036-3.2176,2.4036l-7.6239.0077v3.1296l7.6239-.0034c3.6604,0,6.6391-2.1601,6.6391-5.5375v-5.5541c0-3.2407-2.7198-6.0894-6.2558-6.0894" fill="#1423dc" />
        <path d="M82.8307,25.7918l-.0056-5.7435c0-.3371-.2467-.6113-.5497-.6113h-2.3165c-.303,0-.5508.2742-.5508.6113v5.7435l.0055,5.7436c0,.3371.2467.6113.5508.6113h2.3166c.3029,0,.5497-.2742.5497-.6113v-5.7436Z" fill="#1423dc" />
        <path d="M82.8307,16.2721l-.0056-.6951c0-.336-.2467-.6103-.5497-.6103h-2.3165c-.303,0-.5508.2743-.5508.6103v.6951l.0055,1.2172c0,.336.2467.6103.5508.6103h2.3166c.3029,0,.5497-.2743.5497-.6103v-1.2172Z" fill="#1423dc" />
        <path d="M14.1739,41.4012v-4.23c0-.087.0451-.152.1355-.195.0892-.0441.1982-.0661.3249-.0661.1289,0,.2369.022.3272.0661.0892.043.1344.108.1344.195v3.7552h1.7305c.0848,0,.1532.0363.2027.1101.0496.0738.0738.1609.0738.2611,0,.0992-.0242.1862-.0738.2589-.0495.0738-.1179.1112-.2027.1112h-2.2483c-.109,0-.2038-.0231-.2831-.0716-.0804-.0484-.1211-.1123-.1211-.1949" fill="#1423dc" />
        <path d="M19.2739,41.4012v-4.2234c0-.0826.0407-.1487.1211-.195.0793-.0474.1741-.0727.2831-.0727h2.5248c.0948,0,.1674.0375.217.1113s.0738.1586.0738.2533c0,.1047-.0253.1939-.0771.2677-.0517.0738-.1234.1102-.2137.1102h-2.007v1.302h1.0784c.0892,0,.1608.033.2126.1002.0518.0683.0782.1465.0782.2369,0,.0837-.0253.1575-.0749.2247-.0496.0683-.1212.1013-.2159.1013h-1.0784v1.3087h2.007c.0903,0,.162.0363.2137.1101.0518.0738.0771.1631.0771.2666,0,.0959-.0242.1807-.0738.2534-.0496.0738-.1222.1112-.217.1112h-2.5248c-.109,0-.2038-.0231-.2831-.0716-.0804-.0484-.1211-.1123-.1211-.1949" fill="#1423dc" />
        <path d="M23.4731,41.4012v-4.23c0-.087.0452-.152.1355-.195.0892-.0441.1983-.0661.325-.0661.1288,0,.2368.022.3271.0661.0893.043.1344.108.1344.195v3.7552h1.7306c.0859,0,.1531.0363.2027.1101.0495.0738.0738.1609.0738.2611,0,.0992-.0243.1862-.0738.2589-.0496.0738-.1168.1112-.2027.1112h-2.2483c-.1091,0-.2027-.0231-.2831-.0716-.0804-.0484-.1212-.1123-.1212-.1949" fill="#1423dc" />
        <path d="M27.3461,41.4012v-4.2234c0-.0826.0407-.1487.1212-.195.0804-.0474.174-.0727.283-.0727h2.5248c.0948,0,.1675.0375.217.1113.0496.0738.0738.1586.0738.2533,0,.1047-.0264.1939-.0771.2677-.0517.0738-.1233.1102-.2137.1102h-2.007v1.302h1.0784c.0892,0,.1608.033.2126.1002.0518.0683.0782.1465.0782.2369,0,.0837-.0253.1575-.0749.2247-.0496.0683-.1212.1013-.2159.1013h-1.0784v1.3087h2.007c.0904,0,.162.0363.2137.1101.0507.0738.0771.1631.0771.2666,0,.0959-.0242.1807-.0738.2534-.0495.0738-.1222.1112-.217.1112h-2.5248c-.109,0-.2026-.0231-.283-.0716-.0805-.0484-.1212-.1123-.1212-.1949" fill="#1423dc" />
        <path d="M31.439,40.2165v-1.8153c0-.5122.1509-.8879.4538-1.1291.3029-.2402.6973-.3613,1.1853-.3613.4957,0,.9011.1123,1.2161.3381.3139.2259.4715.5255.4715.8978,0,.1608-.0364.271-.1069.3294s-.1884.087-.3547.087c-.3018,0-.456-.0881-.4605-.2666-.0044-.0562-.011-.1046-.0187-.1465-.0055-.0407-.0253-.0947-.0561-.1619-.0309-.0672-.0695-.1245-.1168-.1696-.0474-.0452-.1179-.0849-.2126-.1168-.0948-.0331-.206-.0485-.3338-.0485-.4957,0-.7447.2479-.7447.748v1.8153c0,.4991.2523.7491.759.7491.152,0,.2776-.0231.3801-.0661.1013-.0429.174-.1057.2192-.185.0451-.0805.076-.1521.0925-.2138.0165-.0638.0275-.141.0319-.2324.0144-.1773.1653-.2666.4539-.2666.1652,0,.2853.0287.358.0882.0738.0583.1102.1685.1102.3282,0,.39-.1576.7028-.4715.9375-.315.2346-.7226.3514-1.2238.3514-.4869,0-.8802-.1201-1.1809-.3614-.3007-.2412-.4505-.6168-.4505-1.1291" fill="#1423dc" />
        <path d="M35.4892,37.2784c0-.097.0242-.1829.0749-.2567.0495-.0738.1211-.1113.2159-.1113h2.9995c.0958,0,.1674.0375.217.1113s.0738.1597.0738.2567c0,.1013-.0253.1894-.0771.2632s-.1223.1113-.2137.1113h-1.0354v3.7464c0,.0826-.0452.1487-.1377.1972-.0926.0473-.1994.0705-.3228.0705-.1278,0-.2358-.0232-.3261-.0705-.0903-.0485-.1343-.1146-.1343-.1972v-3.7464h-1.0432c-.0893,0-.1609-.0364-.2126-.108-.0529-.0716-.0782-.1608-.0782-.2665" fill="#1423dc" />
        <path d="M40.015,41.4016v-4.23c0-.0694.0275-.1311.0848-.1828.0573-.0518.1278-.0783.2126-.0783h1.4045c1.1214,0,1.681.4539,1.681,1.3594,0,.3569-.0837.6433-.2512.8603-.1685.217-.3943.3635-.6774.4417l.9286,1.5819c.0242.0264.0364.0605.0364.1035,0,.1091-.0628.2104-.1851.3029-.1223.0937-.2534.1399-.39.1399-.1377,0-.2434-.0672-.3194-.2016l-1.0069-1.7966h-.5959v1.6997c0,.0815-.0452.1465-.1355.195-.0892.0473-.1983.0705-.325.0705-.1233,0-.2313-.0232-.3227-.0705-.0925-.0485-.1388-.1135-.1388-.195M40.937,39.0388h.7799c.5056,0,.759-.2292.759-.6896,0-.4649-.2534-.6962-.759-.6962h-.7799v1.3858Z" fill="#1423dc" />
        <path d="M44.4976,41.4012v-4.23c0-.087.0451-.152.1355-.195.0892-.0441.1982-.0661.3249-.0661.1289,0,.2369.022.3272.0661.0892.043.1344.108.1344.195v4.23c0,.0826-.0463.1465-.1388.1949-.0914.0485-.1994.0716-.3228.0716-.1267,0-.2357-.0231-.3249-.0716-.0904-.0484-.1355-.1123-.1355-.1949" fill="#1423dc" />
        <path d="M46.6612,40.2165v-1.8153c0-.5122.1509-.8879.4538-1.1291.3029-.2402.6973-.3613,1.1853-.3613.4957,0,.9011.1123,1.2161.3381.3139.2259.4715.5255.4715.8978,0,.1608-.0353.271-.1069.3294-.0705.0584-.1884.087-.3547.087-.3018,0-.456-.0881-.4604-.2666-.0044-.0562-.0111-.1046-.0188-.1465-.0055-.0407-.0253-.0947-.0561-.1619-.0309-.0672-.0695-.1245-.1168-.1696-.0474-.0452-.1179-.0849-.2126-.1168-.0947-.0331-.206-.0485-.3338-.0485-.4957,0-.7446.2479-.7446.748v1.8153c0,.4991.2533.7491.7589.7491.152,0,.2776-.0231.3801-.0661.1013-.0429.174-.1057.2192-.185.0452-.0805.076-.1521.0925-.2138.0165-.0638.0276-.141.032-.2324.0143-.1773.1652-.2666.4538-.2666.1652,0,.2853.0287.358.0882.0738.0583.1102.1685.1102.3282,0,.39-.1576.7028-.4715.9375-.315.2346-.7226.3514-1.2238.3514-.4869,0-.8802-.1201-1.1809-.3614-.3007-.2412-.4505-.6168-.4505-1.1291" fill="#1423dc" />
        <path d="M51.0774,41.4012v-4.23c0-.087.0452-.152.1355-.195.0892-.0441.1983-.0661.325-.0661.1288,0,.2368.022.3271.0661.0893.043.1344.108.1344.195v4.23c0,.0826-.0462.1465-.1388.1949-.0914.0485-.1993.0716-.3227.0716-.1267,0-.2358-.0231-.325-.0716-.0903-.0484-.1355-.1123-.1355-.1949" fill="#1423dc" />
        <path d="M52.9502,37.2784c0-.097.0242-.1829.0749-.2567.0495-.0738.1211-.1113.2159-.1113h2.9996c.0958,0,.1674.0375.2169.1113.0496.0738.0738.1597.0738.2567,0,.1013-.0253.1894-.077.2632-.0519.0738-.1235.1113-.2137.1113h-1.0355v3.7464c0,.0826-.0452.1487-.1377.1972-.0926.0473-.1994.0705-.3228.0705-.1278,0-.2368-.0232-.3261-.0705-.0903-.0485-.1343-.1146-.1343-.1972v-3.7464h-1.0432c-.0892,0-.1608-.0364-.2126-.108-.0529-.0716-.0782-.1608-.0782-.2665" fill="#1423dc" />
        <path d="M57.4756,41.4012v-4.2234c0-.0826.0408-.1487.1212-.195.0793-.0474.174-.0727.2831-.0727h2.5248c.0947,0,.1674.0375.217.1113.0495.0738.0738.1586.0738.2533,0,.1047-.0253.1939-.0771.2677s-.1234.1102-.2137.1102h-2.0071v1.302h1.0784c.0893,0,.1609.033.2126.1002.0518.0683.0783.1465.0783.2369,0,.0837-.0254.1575-.0749.2247-.0496.0683-.1212.1013-.216.1013h-1.0784v1.3087h2.0071c.0903,0,.1619.0363.2137.1101s.0771.1631.0771.2666c0,.0959-.0243.1807-.0738.2534-.0496.0738-.1223.1112-.217.1112h-2.5248c-.1091,0-.2038-.0231-.2831-.0716-.0804-.0484-.1212-.1123-.1212-.1949" fill="#1423dc" />
        <path d="M63.5334,41.4012v-4.2234c0-.0826.0408-.1487.1212-.195.0804-.0474.174-.0727.2831-.0727h2.5248c.0947,0,.1674.0375.2159.1113.0506.0738.0749.1586.0749.2533,0,.1047-.0253.1939-.0771.2677s-.1234.1102-.2137.1102h-2.0071v1.302h1.0784c.0893,0,.1609.033.2126.1002.0518.0683.0783.1465.0783.2369,0,.0837-.0243.1575-.0749.2247-.0496.0683-.1212.1013-.216.1013h-1.0784v1.3087h2.0071c.0903,0,.1619.0363.2137.1101s.0771.1631.0771.2666c0,.0959-.0243.1807-.0749.2534-.0485.0738-.1212.1112-.2159.1112h-2.5248c-.1091,0-.2027-.0231-.2831-.0716-.0804-.0484-.1212-.1123-.1212-.1949" fill="#1423dc" />
        <path d="M67.7327,41.4012v-4.2234c0-.087.044-.1531.1343-.1994.0904-.0452.1983-.0683.3261-.0683.1708,0,.3007.0286.391.0848.0893.0573.1884.1785.2975.3657l1.3692,2.4268v-2.6162c0-.087.0452-.152.1344-.195.0903-.0441.1983-.0661.3272-.0661.1266,0,.2357.022.3249.0661.0903.043.1355.108.1355.195v4.23c0,.0826-.0462.1465-.1377.1949-.0925.0485-.2005.0716-.3227.0716-.2512,0-.4286-.0881-.5332-.2665l-1.5246-2.6162v2.6162c0,.0826-.0462.1465-.1387.1949-.0915.0485-.1994.0716-.3228.0716-.1278,0-.2357-.0231-.3261-.0716-.0903-.0484-.1343-.1123-.1343-.1949" fill="#1423dc" />
        <path d="M74.3225,41.4016v-4.23c0-.0694.0276-.1311.0848-.1828.0573-.0518.1278-.0783.2126-.0783h1.4045c1.1214,0,1.681.4539,1.681,1.3594,0,.3569-.0837.6433-.2512.8603-.1685.217-.3943.3635-.6774.4417l.9286,1.5819c.0242.0264.0364.0605.0364.1035,0,.1091-.0628.2104-.1851.3029-.1223.0937-.2534.1399-.39.1399-.1376,0-.2434-.0672-.3194-.2016l-1.008-1.7966h-.5948v1.6997c0,.0815-.0452.1465-.1355.195-.0892.0473-.1983.0705-.325.0705-.1233,0-.2313-.0232-.3227-.0705-.0925-.0485-.1388-.1135-.1388-.195M75.2445,39.0388h.7799c.5056,0,.759-.2292.759-.6896,0-.4649-.2534-.6962-.759-.6962h-.7799v1.3858Z" fill="#1423dc" />
        <path d="M78.8052,41.4012v-4.2234c0-.0826.0408-.1487.1212-.195.0793-.0474.174-.0727.2831-.0727h2.5248c.0947,0,.1674.0375.217.1113.0495.0738.0738.1586.0738.2533,0,.1047-.0254.1939-.0771.2677-.0518.0738-.1234.1102-.2137.1102h-2.0071v1.302h1.0784c.0893,0,.1609.033.2126.1002.0518.0683.0783.1465.0783.2369,0,.0837-.0254.1575-.0749.2247-.0496.0683-.1212.1013-.216.1013h-1.0784v1.3087h2.0071c.0903,0,.1619.0363.2137.1101.0517.0738.0771.1631.0771.2666,0,.0959-.0243.1807-.0738.2534-.0496.0738-.1223.1112-.217.1112h-2.5248c-.1091,0-.2038-.0231-.2831-.0716-.0804-.0484-.1212-.1123-.1212-.1949" fill="#1423dc" />
        <path d="M82.7491,40.9193c0-.0991.0419-.2004.1245-.3029.0826-.1013.1762-.152.2787-.152.0628,0,.1322.0264.2104.0804s.1542.1135.2269.1796c.0738.065.1785.1255.3162.1795.1365.054.2886.0804.4538.0804.2269,0,.4153-.0473.5673-.1432.1509-.0947.2269-.2368.2269-.423,0-.13-.0407-.2456-.1245-.3481-.0826-.1024-.1916-.1861-.326-.2533-.1355-.0683-.2831-.1322-.444-.1961-.1608-.0617-.3216-.1322-.4846-.2115-.1642-.0771-.3129-.1652-.4484-.2633-.1333-.0969-.2423-.228-.3249-.3899-.0837-.1631-.1245-.3481-.1245-.5563,0-.2346.0507-.4395.1531-.6169.1003-.1795.2368-.3183.4076-.4175.1696-.098.3514-.1718.5453-.2181.1938-.0462.3998-.0683.6168-.0683.1234,0,.2534.0077.39.0221.1377.0165.2831.0418.4373.0771.1531.0363.2787.0914.3756.1674.097.076.1455.1652.1455.2677,0,.0958-.0331.1961-.0992.2996s-.1564.1553-.2699.1553c-.0418,0-.1586-.0418-.347-.1245-.1894-.0826-.3998-.1233-.6323-.1233-.2544,0-.4516.044-.5915.1333-.1388.0892-.2093.2115-.2093.3679,0,.1256.0562.2346.1697.3293.1145.0926.2544.1675.4218.227.1686.0584.3514.1322.5464.2214.1961.0881.3778.185.5464.2897.1685.1035.3084.2545.423.4516.1135.1983.1696.4285.1696.6929,0,.445-.1553.7887-.4648,1.03-.3096.2423-.7171.3624-1.2228.3624-.4505,0-.8361-.0837-1.1566-.2534-.3216-.1696-.4825-.3525-.4825-.553" fill="#1423dc" />
        <path d="M87.2199,41.4012v-4.2234c0-.0826.0408-.1487.1212-.195.0793-.0474.174-.0727.2831-.0727h2.5248c.0947,0,.1674.0375.217.1113.0495.0738.0737.1586.0737.2533,0,.1047-.0253.1939-.077.2677-.0518.0738-.1234.1102-.2137.1102h-2.0071v1.302h1.0784c.0892,0,.1608.033.2126.1002.0518.0683.0782.1465.0782.2369,0,.0837-.0253.1575-.0749.2247-.0495.0683-.1211.1013-.2159.1013h-1.0784v1.3087h2.0071c.0903,0,.1619.0363.2137.1101.0517.0738.077.1631.077.2666,0,.0959-.0242.1807-.0737.2534-.0496.0738-.1223.1112-.217.1112h-2.5248c-.1091,0-.2038-.0231-.2831-.0716-.0804-.0484-.1212-.1123-.1212-.1949" fill="#1423dc" />
        <path d="M95.8077,40.2165v-3.0458c0-.087.0451-.1509.1354-.1949.0893-.043.1983-.065.325-.065.1289,0,.2368.022.3272.065.0892.044.1343.1079.1343.1949v3.0458c0,.4991.26.7491.78.7491.521,0,.781-.25.781-.7491v-3.0458c0-.087.044-.1509.1343-.1949.0904-.043.1983-.065.3261-.065s.2369.022.3272.065c.0892.044.1344.1079.1344.1949v3.0458c0,.5123-.1542.8879-.4649,1.1291-.3095.2413-.7226.3614-1.2381.3614-.5145,0-.9276-.1201-1.2371-.3581-.3095-.2379-.4648-.6157-.4648-1.1324" fill="#1423dc" />
        <path d="M17.5744,36.994s.1124-.1465.2688-.0925c0,0,.2699.0683.3745.1884,0,0,.0683.1101.0143.2247l-.4703.9815s-.0805.1168-.2699.098c0,0-.1069.0044-.206-.0925,0,0-.1465-.1421-.0782-.2886l.3668-1.019Z" fill="#1423dc" />
        <path d="M93.9164,40.6325l.2644.8669c.0374.1113.1542.1686.3514.1686.1553,0,.2269-.0364.3668-.108.141-.0716.2115-.1608.2115-.2677,0-.0099-.0055-.033-.0143-.0694l-1.3494-4.0306c-.0375-.1002-.1157-.1795-.2215-.2368-.1476-.0793-.3524-.0837-.4956-.0837-.1421,0-.3481.0044-.4946.0837-.1058.0573-.184.1366-.2215.2368l-1.3494,4.0306c-.0099.0364-.0143.0595-.0143.0694,0,.1069.0705.1961.2115.2677.1399.0716.2115.108.3668.108.1972,0,.3151-.0573.3514-.1686l.2644-.8669h1.7724ZM92.3467,39.9694l.683-2.2406.684,2.2406h-1.367Z" fill="#1423dc" />
      </g>
    </g>
  </g>
</svg>